# xmcd CD database file
#
# Track frame offsets:
#	187
#	19057
#	36340
#	51992
#	66485
#	84112
#	107925
#	125837
#	145472
#	160262
#	180182
#
# Disc length: 2587 seconds
#
# Revision: 0
# Processed by: cddbd v1.5.1PL0 Copyright (c) Steve Scherf et al.
# Submitted via: CDex 1.51
#
DISCID=9a0a190b
DTITLE=Helen Merrill - parole e musica
DYEAR=1900
DGENRE=Jazz
TTITLE0=Night and Day
TTITLE1=Everything happes to me
TTITLE2=Autumn in new york
TTITLE3=Why don't you do right
TTITLE4=You don't know what love is
TTITLE5=These foolish things
TTITLE6=April in paris
TTITLE7=I've got you under my skin
TTITLE8=Solitude
TTITLE9=Willow weep for me
TTITLE10=When your lover has gone
EXTD=
EXTT0=
EXTT1=
EXTT2=
EXTT3=
EXTT4=
EXTT5=
EXTT6=
EXTT7=
EXTT8=
EXTT9=
EXTT10=
PLAYORDER=
